<?xml version="1.0" encoding="UTF-8"?>
<svg width="1440px" height="623px" viewBox="0 0 1440 623" version="1.1" xmlns="http://www.w3.org/2000/svg" xmlns:xlink="http://www.w3.org/1999/xlink">
    <g id="Page-1" stroke="none" stroke-width="1" fill="none" fill-rule="evenodd">
        <g transform="translate(0.000000, -280.000000)" fill="#000000">
            <path d="M481.761488,667.735604 L481.761488,790.841658 L415.846435,790.841658 L415.846435,902.315644 L256.874838,902.315644 L256.874838,790.841658 L-3.41060513e-13,790.841658 L-3.41060513e-13,640.594112 L233.610701,280 L404.214367,280 L154.124903,667.735604 L256.874838,667.735604 L256.874838,544.62955 L415.846435,544.62955 L415.846435,667.735604 L481.761488,667.735604 Z M754.083212,759.82281 L754.083212,422.492834 C754.083212,408.275791 746.005467,401.167376 729.849736,401.167376 L703.677583,401.167376 C687.521852,401.167376 679.444108,408.275791 679.444108,422.492834 L679.444108,759.82281 C679.444108,774.039853 687.521852,781.148268 703.677583,781.148268 L729.849736,781.148268 C746.005467,781.148268 754.083212,774.039853 754.083212,759.82281 Z M926.953901,400.198037 L926.953901,782.117607 C926.953901,862.250032 879.456765,902.315644 784.461067,902.315644 L655.538979,902.315644 C560.543281,902.315644 513.046144,862.250032 513.046144,782.117607 L513.046144,400.198037 C513.046144,320.065612 560.543281,280 655.538979,280 L784.461067,280 C879.456765,280 926.953901,320.065612 926.953901,400.198037 Z M1440,667.735604 L1440,790.841658 L1374.08495,790.841658 L1374.08495,902.315644 L1215.11335,902.315644 L1215.11335,790.841658 L958.238512,790.841658 L958.238512,640.594112 L1191.84921,280 L1362.45288,280 L1112.36341,667.735604 L1215.11335,667.735604 L1215.11335,544.62955 L1374.08495,544.62955 L1374.08495,667.735604 L1440,667.735604 Z"></path>
        </g>
    </g>
</svg>